<?xml version="1.0" encoding="UTF-8" standalone="no"?>
<!-- Created with Inkscape (http://www.inkscape.org/) -->
<svg id="svg2" xmlns:rdf="http://www.w3.org/1999/02/22-rdf-syntax-ns#" xmlns="http://www.w3.org/2000/svg" height="140" viewBox="0 0 279 140" width="279" version="1.1" xmlns:cc="http://creativecommons.org/ns#" xmlns:xlink="http://www.w3.org/1999/xlink" xmlns:dc="http://purl.org/dc/elements/1.1/">
 <metadata id="metadata8">
  <rdf:RDF>
   <cc:Work rdf:about="">
    <dc:format>image/svg+xml</dc:format>
    <dc:type rdf:resource="http://purl.org/dc/dcmitype/StillImage"/>
    <dc:title/>
   </cc:Work>
  </rdf:RDF>
 </metadata>
 <image id="image10" style="image-rendering:optimizeQuality" xlink:href="file:///C:/Users/mxstar1/Desktop/Emulationstation%20Art%20for%20themes/SuperGrafx_logo.png" height="140" width="279" y="0" x="0" preserveAspectRatio="none"/>
 <path id="path3338" fill="#008fa9" d="m43.455 134.55c-2.243-2.25-2.455-3.24-2.455-11.47 0-13.06 0.031-13.08 19.689-13.08h15.311v2.5 2.5h-14-14v8.5 8.5h11 11v-3c0-2.9697-0.05556-3-5.5-3-5.2 0-5.5-0.13636-5.5-2.5 0-2.4706 0.1-2.5 8.5-2.5h8.5v8 8h-15.045c-14.641 0-15.111-0.066-17.5-2.4546zm38.545-11.05v-13.5h15c13.667 0 15.178 0.17778 17 2 3.0581 3.0581 2.7268 9.2831-0.63486 11.927-1.4492 1.1399-3.2492 2.0726-4 2.0726-2.0053 0-1.741 0.72004 2.2703 6.1845l3.6354 4.9524-3.8374-0.31844c-3.2735-0.27165-4.4322-1.079-7.8854-5.494-4.0188-5.1383-4.0895-5.1761-9.798-5.25l-5.757-0.07v5.5c0 5.4444-0.0303 5.5-3 5.5h-3v-13.5zm27-5.5v-3h-10-10v3 3h10 10v-3zm14.85 9.25c2.6774-5.3625 5.6577-11.438 6.6231-13.5 1.749-3.7369 1.7767-3.75 7.9084-3.75h6.1532l6.7281 13.5 6.7281 13.5h-3.4869c-3.4369 0-3.5661-0.15783-9.0036-11-3.2983-6.5766-6.1132-11-7-11-0.88681 0-3.7017 4.4234-7 11-5.4438 10.855-5.563 11-9.0175 11h-3.5008l4.8679-9.75zm37.15-3.75v-13.5h16 16v2.5 2.5h-12.5-12.5v3 3h10.5 10.5v2.5 2.5h-10.5-10.5v5.5 5.5h-3.5-3.5v-13.5zm40.768 6.2333 7.2182-7.2667-6.2333-6.2333l-6.24-6.23h3.8863c3.2377 0 4.705 0.76579 8.7917 4.5885l4.9054 4.5884 4.9054-4.5884c4.24-3.97 5.48-4.59 9.17-4.59h4.264l-6.3778 6.435-6.3778 6.435 6.8207 7.065 6.8207 7.065h-3.9516c-3.4187 0-4.6159-0.67437-8.8765-5-2.7086-2.75-5.3062-5-5.7723-5s-3.2265 2.25-6.1342 5c-4.688 4.4337-5.7827 5-9.6651 5h-4.3783l7.2182-7.2667zm-190.05-35.505-6.723-6.775v-8.725-8.725h9 9v6.5 6.5h7 7v-11-11h-2.5c-2.481 0-2.5-0.067-2.5-9v-9l4.25 0.000537c4.0326 0.00051 4.6208 0.40601 11.5 7.9275l7.25 7.927v14.349 14.35l-6.775 6.723-6.775 6.723h-11.502-11.502l-6.723-6.775zm56 0l-6.723-6.775v-40.725-40.725h9.5 9.5v38.5 38.5h2.5c2.4815 0 2.5 0.06667 2.5 9v9h-5.2768c-5.1883 0-5.3896-0.11366-12-6.7751zm20.277-2.225v-9h3 3v-38.5-38.5h9.5 9.5v40.777 40.777l-6.7751 6.7232-6.77 6.723h-5.725-5.725v-9zm31-38.5v-47.5h9.5 9.5v47.5 47.5h-9.5-9.5v-47.5zm55 0v-47.5h20.5 20.5v9 9h-11-11v29.5 29.5h11 11v9 9h-20.5-20.5v-47.5zm47 0v-47.5h9.5 9.5v47.5 47.5h-9.5-9.5v-47.5zm32 28.5v-19h-4.5-4.5v-9-9h4.5 4.5v-10.5-10.5h-4.5-4.5v-9-9h7.2768 7.2768l6.7232 6.7751 6.7232 6.7751v11.943 11.943l-5.2158 5.2814-5.21 5.283 5.21 5.281 5.22 5.282v18.218 18.219h-9.5-9.5v-19zm-112-22v-9h4 4v-13.5-13.5h-4-4v-9-9h6.7768 6.7768l6.7232 6.7751 6.7232 6.7751v18.002 18.002l-6.7751 6.7232-6.77 6.723h-6.73-6.72v-9zm-129.84-5.413-6.159-6.414 0.0191-14.336 0.0192-14.337 6.0677-6.75 6.068-6.75h12.692 12.692l6.221 6.277 6.221 6.277v8.723 8.723h-9-9v-6-6h-6.5-6.5v9.5c0 9.4667 0.0088 9.5 2.5 9.5 2.4815 0 2.5 0.06667 2.5 9v9h-5.8415-5.8415l-6.1585-6.4134zm185.84-3.587v-9h7 7v9 9h-7-7v-9z"/>
</svg>
